<?xml version="1.0" encoding="UTF-8" standalone="no"?>
<svg
   version="1.1"
   preserveAspectRatio="xMidYMid"
   xml:space="preserve"
   width="250pt"
   height="220pt"
   viewBox="-1.402335 -2.845828 250 219.99999"
   id="svg7848"
   sodipodi:docname="Class Diagram.svg"
   inkscape:version="1.1.2 (b8e25be833, 2022-02-05)"
   xmlns:inkscape="http://www.inkscape.org/namespaces/inkscape"
   xmlns:sodipodi="http://sodipodi.sourceforge.net/DTD/sodipodi-0.dtd"
   xmlns="http://www.w3.org/2000/svg"
   xmlns:svg="http://www.w3.org/2000/svg"
   xmlns:eadoc="http://www.siemens.com/eauml/doc"><defs
     id="defs7852" /><sodipodi:namedview
     id="namedview7850"
     pagecolor="#ffffff"
     bordercolor="#666666"
     borderopacity="1.0"
     inkscape:pageshadow="2"
     inkscape:pageopacity="0.0"
     inkscape:pagecheckerboard="0"
     inkscape:document-units="pt"
     showgrid="false"
     inkscape:zoom="1.2160509"
     inkscape:cx="68.253725"
     inkscape:cy="235.5987"
     inkscape:window-width="1920"
     inkscape:window-height="1001"
     inkscape:window-x="-9"
     inkscape:window-y="-9"
     inkscape:window-maximized="1"
     inkscape:current-layer="g7842" /><desc
     id="desc2"><eadoc:guid>EAID_E7392BD0_1065_4bea_A63B_EDA8265F6478</eadoc:guid><eadoc:name>Class Diagram</eadoc:name><eadoc:type>Diagram</eadoc:type><eadoc:note /></desc><g
     transform="matrix(1,0,0,-1,0,2160)"
     id="g7846"><g
       stroke="#000000"
       fill="none"
       fill-rule="evenodd"
       stroke-width="1"
       stroke-linecap="round"
       stroke-linejoin="round"
       stroke-miterlimit="3"
       letter-spacing="normal"
       font-weight="normal"
       font-style="normal"
       baseline-shift="0px"
       id="g7844"><g
         transform="matrix(0.5,0,0,0.5,0,2160)"
         id="g7842"><g
           transform="matrix(1.319533,0,0,-1.288543,-207.22818,115.9491)"
           font-family="CalibriUnicode"
           font-size="28px"
           id="g3866"><rect
             stroke="#9a8484"
             x="170"
             y="101"
             width="349"
             height="311"
             id="rect1348" /><rect
             stroke="#9a8484"
             x="168"
             y="1786"
             width="1443"
             height="245"
             id="rect1354" /><rect
             stroke="#9a8484"
             x="168"
             y="2081"
             width="1137"
             height="903"
             id="rect1356" /></g><g
           transform="matrix(1.319533,0,0,-1.288543,-207.22818,115.9491)"
           font-family="CalibriUnicode"
           font-size="7px"
           id="g5894" /><g
           transform="matrix(1.319533,0,0,-1.288543,-207.22818,115.9491)"
           font-family="CalibriUnicode"
           font-size="7px"
           id="g6030" /><g
           transform="matrix(1.319533,0,0,1.288543,-207.22818,115.9491)"
           font-family="CalibriUnicode"
           font-size="7px"
           id="g7378"><text
             transform="scale(1,-1)"
             fill="#595959"
             font-weight="bold"
             stroke="none"
             id="text7352"><tspan
               x="175"
               y="2093"
               id="tspan7350" /></text><text
             transform="scale(1,-1)"
             fill="#595959"
             font-weight="bold"
             stroke="none"
             id="text7376"><tspan
               dx="0"
               x="203"
               y="1354"
               id="tspan7362">U</tspan><tspan
               dx="0 0"
               x="208"
               y="1354"
               id="tspan7364">ti</tspan><tspan
               dx="0"
               x="212.5"
               y="1354"
               id="tspan7366">l</tspan><tspan
               dx="0"
               x="214.25"
               y="1354"
               id="tspan7368">i</tspan><tspan
               dx="0 0"
               x="216"
               y="1354"
               id="tspan7370">ti</tspan><tspan
               dx="0"
               x="220.25"
               y="1354"
               id="tspan7372">e</tspan><tspan
               dx="0"
               x="224"
               y="1354"
               id="tspan7374">s</tspan></text></g><g
           transform="matrix(1.319533,0,0,-1.288543,-207.22818,115.9491)"
           font-family="CalibriUnicode"
           font-size="7px"
           id="g7578"><rect
             fill="#d0d0d0"
             stroke="none"
             x="301"
             y="138"
             width="90"
             height="35"
             id="rect7380" /><rect
             stroke="none"
             fill="#fdfaf7"
             x="298"
             y="135"
             width="89"
             height="34"
             id="rect7382" /><rect
             stroke="#9a8484"
             x="298"
             y="135"
             width="89"
             height="35"
             id="rect7384" /><rect
             stroke="#9a8484"
             x="298"
             y="135"
             width="89"
             height="34"
             id="rect7386" /><text
             transform="translate(327,144)"
             fill="#595959"
             font-weight="bold"
             stroke="none"
             id="text7410"><desc
               id="desc7388"><eadoc:guid>EAID_619FC9D4_9FAA_478f_97BC_7DF6F1BD27C4</eadoc:guid><eadoc:name>Application</eadoc:name><eadoc:type>Class</eadoc:type><eadoc:note /></desc><tspan
               dx="0"
               x="0"
               y="7"
               id="tspan7390">A</tspan><tspan
               dx="0"
               x="3.75"
               y="7"
               id="tspan7392">p</tspan><tspan
               dx="0"
               x="7"
               y="7"
               id="tspan7394">p</tspan><tspan
               dx="0"
               x="10.25"
               y="7"
               id="tspan7396">l</tspan><tspan
               dx="0"
               x="12"
               y="7"
               id="tspan7398">i</tspan><tspan
               dx="0"
               x="13.75"
               y="7"
               id="tspan7400">c</tspan><tspan
               dx="0"
               x="16.5"
               y="7"
               id="tspan7402">a</tspan><tspan
               dx="0 0"
               x="19.75"
               y="7"
               id="tspan7404">ti</tspan><tspan
               dx="0"
               x="24"
               y="7"
               id="tspan7406">o</tspan><tspan
               dx="0"
               x="27.5"
               y="7"
               id="tspan7408">n</tspan></text><rect
             fill="#d0d0d0"
             stroke="none"
             x="196"
             y="206"
             width="300"
             height="197"
             id="rect7412" /><rect
             stroke="none"
             fill="#fdfaf7"
             x="193"
             y="203"
             width="299"
             height="196"
             id="rect7414" /><rect
             stroke="#9a8484"
             x="193"
             y="203"
             width="299"
             height="197"
             id="rect7416" /><rect
             stroke="#9a8484"
             x="193"
             y="203"
             width="299"
             height="196"
             id="rect7418" /><text
             transform="translate(331,209)"
             fill="#595959"
             stroke="none"
             id="text7436"><tspan
               dx="0"
               x="0"
               y="7"
               id="tspan7420">«</tspan><tspan
               dx="0"
               x="3.25"
               y="7"
               id="tspan7422">p</tspan><tspan
               dx="0"
               x="6.5"
               y="7"
               id="tspan7424">a</tspan><tspan
               dx="0"
               x="9.75"
               y="7"
               id="tspan7426">r</tspan><tspan
               dx="0 0"
               x="12.25"
               y="7"
               id="tspan7428">ti</tspan><tspan
               dx="0"
               x="16"
               y="7"
               id="tspan7430">a</tspan><tspan
               dx="0"
               x="19.25"
               y="7"
               id="tspan7432">l</tspan><tspan
               dx="0"
               x="20.75"
               y="7"
               id="tspan7434">»</tspan></text><text
             transform="translate(337,218)"
             fill="#595959"
             font-weight="bold"
             stroke="none"
             id="text7442"><desc
               id="desc7438"><eadoc:guid>EAID_BF4C8F54_7025_4c37_9FD3_EF3EE5067345</eadoc:guid><eadoc:name>App</eadoc:name><eadoc:type>Class</eadoc:type><eadoc:note /></desc><tspan
               dx="0"
               x="0"
               y="7"
               id="tspan7440">App</tspan></text><path
             stroke="#9a8484"
             d="M 193,232 H 492"
             id="path7444" /><text
             transform="translate(198,236)"
             fill="#66413f"
             stroke="none"
             id="text7448"><tspan
               dx="0"
               x="0"
               y="7"
               id="tspan7446">- </tspan></text><text
             transform="translate(209,236)"
             fill="#66413f"
             stroke="none"
             id="text7452"><tspan
               dx="0"
               x="0"
               y="7"
               id="tspan7450">_model: GameModel</tspan></text><text
             transform="translate(198,245)"
             fill="#66413f"
             stroke="none"
             id="text7456"><tspan
               dx="0"
               x="0"
               y="7"
               id="tspan7454">- </tspan></text><text
             transform="translate(209,245)"
             fill="#66413f"
             stroke="none"
             id="text7460"><tspan
               dx="0"
               x="0"
               y="7"
               id="tspan7458">_viewModel: GameViewModel</tspan></text><text
             transform="translate(198,254)"
             fill="#66413f"
             stroke="none"
             id="text7464"><tspan
               dx="0"
               x="0"
               y="7"
               id="tspan7462">- </tspan></text><text
             transform="translate(209,254)"
             fill="#66413f"
             stroke="none"
             id="text7468"><tspan
               dx="0"
               x="0"
               y="7"
               id="tspan7466">_view: MainWindow</tspan></text><text
             transform="translate(198,263)"
             fill="#66413f"
             stroke="none"
             id="text7472"><tspan
               dx="0"
               x="0"
               y="7"
               id="tspan7470">- </tspan></text><text
             transform="translate(209,263)"
             fill="#66413f"
             stroke="none"
             id="text7518"><tspan
               dx="0"
               x="0"
               y="7"
               id="tspan7474">_</tspan><tspan
               dx="0 0"
               x="3.25"
               y="7"
               id="tspan7476">ti</tspan><tspan
               dx="0"
               x="7"
               y="7"
               id="tspan7478">m</tspan><tspan
               dx="0"
               x="12.5"
               y="7"
               id="tspan7480">e</tspan><tspan
               dx="0"
               x="15.75"
               y="7"
               id="tspan7482">r</tspan><tspan
               dx="0"
               x="18.25"
               y="7"
               id="tspan7484">:</tspan><tspan
               dx="0"
               x="20.25"
               y="7"
               id="tspan7486"> </tspan><tspan
               dx="0"
               x="21.5"
               y="7"
               id="tspan7488">D</tspan><tspan
               dx="0"
               x="25.5"
               y="7"
               id="tspan7490">i</tspan><tspan
               dx="0"
               x="27"
               y="7"
               id="tspan7492">s</tspan><tspan
               dx="0"
               x="29.75"
               y="7"
               id="tspan7494">p</tspan><tspan
               dx="0"
               x="33"
               y="7"
               id="tspan7496">a</tspan><tspan
               dx="0"
               x="36.25"
               y="7"
               id="tspan7498">t</tspan><tspan
               dx="0"
               x="38.5"
               y="7"
               id="tspan7500">c</tspan><tspan
               dx="0"
               x="41.5"
               y="7"
               id="tspan7502">h</tspan><tspan
               dx="0"
               x="44.75"
               y="7"
               id="tspan7504">e</tspan><tspan
               dx="0"
               x="48"
               y="7"
               id="tspan7506">r</tspan><tspan
               dx="0"
               x="50.5"
               y="7"
               id="tspan7508">T</tspan><tspan
               dx="0"
               x="53.75"
               y="7"
               id="tspan7510">i</tspan><tspan
               dx="0"
               x="55.25"
               y="7"
               id="tspan7512">m</tspan><tspan
               dx="0"
               x="61"
               y="7"
               id="tspan7514">e</tspan><tspan
               dx="0"
               x="64.5"
               y="7"
               id="tspan7516">r</tspan></text><path
             stroke="#9a8484"
             d="M 193,276 H 492"
             id="path7520" /><text
             transform="translate(198,280)"
             fill="#455633"
             stroke="none"
             id="text7524"><tspan
               dx="0"
               x="0"
               y="7"
               id="tspan7522">+ </tspan></text><text
             transform="translate(209,280)"
             fill="#455633"
             stroke="none"
             id="text7528"><tspan
               dx="0"
               x="0"
               y="7"
               id="tspan7526">App()</tspan></text><text
             transform="translate(198,289)"
             fill="#455633"
             stroke="none"
             id="text7532"><tspan
               dx="0"
               x="0"
               y="7"
               id="tspan7530">- </tspan></text><text
             transform="translate(209,289)"
             fill="#455633"
             stroke="none"
             id="text7536"><tspan
               dx="0"
               x="0"
               y="7"
               id="tspan7534">App_Startup(sender: Sender, args: StartupEventArgs): void</tspan></text><text
             transform="translate(198,298)"
             fill="#455633"
             stroke="none"
             id="text7540"><tspan
               dx="0"
               x="0"
               y="7"
               id="tspan7538">- </tspan></text><text
             transform="translate(209,298)"
             fill="#455633"
             stroke="none"
             id="text7544"><tspan
               dx="0"
               x="0"
               y="7"
               id="tspan7542">View_Closing(sender: Sender, args: CancelEventArgs): void</tspan></text><text
             transform="translate(198,307)"
             fill="#455633"
             stroke="none"
             id="text7548"><tspan
               dx="0"
               x="0"
               y="7"
               id="tspan7546">- </tspan></text><text
             transform="translate(209,307)"
             fill="#455633"
             stroke="none"
             id="text7552"><tspan
               dx="0"
               x="0"
               y="7"
               id="tspan7550">Timer_Tick(sender: Sender, args: EventArgs): void</tspan></text><text
             transform="translate(198,316)"
             fill="#455633"
             stroke="none"
             id="text7556"><tspan
               dx="0"
               x="0"
               y="7"
               id="tspan7554">- </tspan></text><text
             transform="translate(209,316)"
             fill="#455633"
             stroke="none"
             id="text7560"><tspan
               dx="0"
               x="0"
               y="7"
               id="tspan7558">ViewModel_NewGame(sender: Sender, args: EventArgs): void</tspan></text><text
             transform="translate(198,325)"
             fill="#455633"
             stroke="none"
             id="text7564"><tspan
               dx="0"
               x="0"
               y="7"
               id="tspan7562">- </tspan></text><text
             transform="translate(209,325)"
             fill="#455633"
             stroke="none"
             id="text7568"><tspan
               dx="0"
               x="0"
               y="7"
               id="tspan7566">ViewModel_ExitGame(sender: Sender, args: EventArgs): void</tspan></text><text
             transform="translate(198,334)"
             fill="#455633"
             stroke="none"
             id="text7572"><tspan
               dx="0"
               x="0"
               y="7"
               id="tspan7570">- </tspan></text><text
             transform="translate(209,334)"
             fill="#455633"
             stroke="none"
             id="text7576"><tspan
               dx="0"
               x="0"
               y="7"
               id="tspan7574">Model_GameOver(sender: Sender, args: EventArgs): void</tspan></text></g><g
           transform="matrix(1.319533,0,0,1.288543,-207.22818,115.9491)"
           font-family="CalibriUnicode"
           font-size="7px"
           id="g7584"><text
             transform="scale(1,-1)"
             fill="#595959"
             font-weight="bold"
             stroke="none"
             id="text7582"><tspan
               dx="0"
               x="175"
               y="113"
               id="tspan7580">AquaCoaster</tspan></text></g><g
           transform="matrix(1.319533,0,0,-1.288543,-207.22818,115.9491)"
           font-family="CalibriUnicode"
           font-size="7px"
           id="g7840"><path
             stroke="#69738c"
             d="m 1185,1580 v -27 m 0,0 h 131 m 0,0 v -50"
             id="path7586" /><path
             stroke="#69738c"
             fill="#faf1ec"
             d="m 1322,1519 h -12 l 6,-16 6,16"
             id="path7588" /><path
             stroke="#69738c"
             d="m 1066,878 v -13 m 0,0 v 0 m 0,0 v -50"
             id="path7590" /><path
             stroke="#69738c"
             fill="#faf1ec"
             d="m 1072,831 h -12 l 6,-16 6,16"
             id="path7592" /><path
             stroke="#69738c"
             d="m 1721,1580 v -77"
             id="path7594" /><path
             stroke="#69738c"
             fill="#faf1ec"
             d="m 1727,1519 h -12 l 6,-16 6,16"
             id="path7596" /><path
             stroke="#69738c"
             d="m 1444,1655 -1,-36"
             id="path7598" /><path
             stroke="#69738c"
             fill="#faf1ec"
             d="m 1449,1635 h -12 l 6,-16 6,16"
             id="path7600" /><path
             stroke="#69738c"
             d="m 524,1840 h 52"
             id="path7602" /><path
             stroke="#69738c"
             fill="#69738c"
             d="m 566,1845 10,-5 -10,-5 -10,5 10,5"
             id="path7604" /><path
             stroke="#69738c"
             d="m 2049,633 v 37"
             id="path7606" /><path
             stroke="#69738c"
             fill="#69738c"
             d="m 2044,660 5,10 5,-10 -5,-10 -5,10"
             id="path7608" /><path
             stroke="#658a99"
             d="m 1895.6606,701.10723 -3.2662,-0.61316 m -4.3549,-1.22633 -3.2662,-0.61317 m -4.3549,-1.22633 -3.2661,-1.22633 m -4.3549,-1.22634 -3.2662,-0.61316 m -4.3549,-1.22633 -3.2662,-1.22634"
             id="path7610"
             style="stroke-width:0.817049" /><path
             stroke="#69738c"
             d="m 1442,1580 v -27 m 0,0 h -126 m 0,0 v -50"
             id="path7612" /><path
             stroke="#69738c"
             fill="#faf1ec"
             d="m 1322,1519 h -12 l 6,-16 6,16"
             id="path7614" /><path
             stroke="#69738c"
             d="m 2117,1263 v -20 m 0,0 h -137 m 0,0 v -50"
             id="path7616" /><path
             stroke="#69738c"
             fill="#faf1ec"
             d="m 1986,1209 h -12 l 6,-16 6,16"
             id="path7618" /><path
             stroke="#658a99"
             d="m 1895.9475,721.01331 -1.0866,3.8594 m -3.2597,5.14585 -2.1731,3.8594 m -3.2597,5.14586 -2.1732,3.85939 m -2.1731,5.14586 -2.1732,3.85939 m -3.2597,5.14586 -2.1732,3.85939 m -2.1731,5.14586 -2.1732,3.8594 m -3.2597,5.14586 -2.1731,3.85939 m -2.1732,5.14586 -2.1731,3.85939"
             id="path7620"
             style="stroke-width:1.1823" /><path
             stroke="#69738c"
             d="m 1718,1392 v -23 m 0,0 h -192 m 0,0 v -50"
             id="path7622" /><path
             stroke="#69738c"
             fill="#faf1ec"
             d="m 1532,1335 h -12 l 6,-16 6,16"
             id="path7624" /><path
             stroke="#69738c"
             d="m 1313,1392 v -23 m 0,0 h 213"
             id="path7626" /><path
             stroke="#69738c"
             d="m 889,1852 h -15 m 0,0 v 57 m 0,0 h -50"
             id="path7628" /><path
             stroke="#69738c"
             fill="#69738c"
             d="m 834,1904 -10,5 10,5 10,-5 -10,-5"
             id="path7630" /><path
             stroke="#69738c"
             d="m 1186,1655 v -36"
             id="path7632" /><path
             stroke="#69738c"
             fill="#faf1ec"
             d="m 1192,1635 h -12 l 6,-16 6,16"
             id="path7634" /><path
             stroke="#69738c"
             d="m 1977,1125 v -16"
             id="path7636" /><path
             stroke="#69738c"
             d="m 1635,1109 v -50"
             id="path7638" /><path
             stroke="#69738c"
             fill="#faf1ec"
             d="m 1641,1075 h -12 l 6,-16 6,16"
             id="path7640" /><path
             stroke="#658a99"
             d="m 1775,1046 c 0,-2 0,-3 0,-4 m -1,-3 c 0,-1 0,-2 0,-3 m 0,-4 c 0,-1 0,-2 0,-3 m 1,-4 c 0,-1 0,-2 0,-3 m 1,-4 c 0,-1 0,-2 1,-3 m 1,-3 c 0,-1 0,-2 1,-3 m 2,-4 c 1,0 2,-1 3,-2 m 4,-1 c 1,0 2,0 3,0"
             id="path7642" /><path
             stroke="#69738c"
             d="M 1901,959 V 939"
             id="path7644" /><path
             stroke="#69738c"
             d="M 2007,939 V 889"
             id="path7646" /><path
             stroke="#69738c"
             fill="#faf1ec"
             d="m 2013,905 h -12 l 6,-16 6,16"
             id="path7648" /><path
             stroke="#658a99"
             stroke-dasharray="3, 4"
             d="m 2121.6695,769.83216 h 37"
             id="path7650" /><path
             stroke="#69738c"
             d="m 1831,1263 v -20 m 0,0 h 149"
             id="path7652" /><path
             stroke="#658a99"
             d="m 1894.7653,712.05239 h -4.676 m -6.2347,0 -4.6761,0.93075 m -6.2347,0 h -4.676 m -6.2347,0.93076 h -4.676 m -6.2347,0.93075 h -4.676"
             id="path7654"
             style="stroke-width:1.20447" /><path
             stroke="#69738c"
             d="m 1520,1126 v -17 m 0,0 h 115"
             id="path7656" /><path
             stroke="#69738c"
             d="m 1632,962 v -23 m 0,0 h 375"
             id="path7658" /><path
             stroke="#69738c"
             d="m 2398,962 v -23 m 0,0 h -391"
             id="path7660" /><path
             stroke="#69738c"
             d="M 2149,962 V 939"
             id="path7662" /><path
             stroke="#69738c"
             d="m 1255,879 v -14 m 0,0 h -189"
             id="path7664" /><path
             stroke="#69738c"
             d="m 876,878 v -13 m 0,0 h 190"
             id="path7666" /><path
             stroke="#69738c"
             d="m 2329,1125 v -16 m 0,0 h -694"
             id="path7668" /><path
             stroke="#658a99"
             stroke-dasharray="3, 4"
             d="M 953,743 H 915"
             id="path7670" /><path
             stroke="#69738c"
             d="M 548,2390 H 862"
             id="path7672" /><path
             stroke="#69738c"
             fill="#69738c"
             d="m 852,2395 10,-5 -10,-5 -10,5 10,5"
             id="path7674" /><path
             stroke="#69738c"
             d="m 1042,2733 v -48"
             id="path7676" /><path
             stroke="#69738c"
             fill="#69738c"
             d="m 1047,2695 -5,-10 -5,10 5,10 5,-10"
             id="path7678" /><path
             stroke="#69738c"
             d="m 1046,2175 v 68"
             id="path7680" /><path
             stroke="#69738c"
             fill="#69738c"
             d="m 1041,2233 5,10 5,-10 -5,-10 -5,10"
             id="path7682" /><path
             stroke="#69738c"
             d="m 476,2335 v -78"
             id="path7684" /><path
             stroke="#69738c"
             fill="#faf1ec"
             d="m 482,2273 h -12 l 6,-16 6,16"
             id="path7686" /><path
             stroke="#69738c"
             d="m 624,2491 v -14 m 0,0 H 476 m 0,0 v -50"
             id="path7688" /><path
             stroke="#69738c"
             fill="#faf1ec"
             d="m 482,2443 h -12 l 6,-16 6,16"
             id="path7690" /><path
             stroke="#69738c"
             d="m 352,2491 v -14 m 0,0 h 124 m 0,0 v -50"
             id="path7692" /><path
             stroke="#69738c"
             fill="#faf1ec"
             d="m 482,2443 h -12 l 6,-16 6,16"
             id="path7694" /><path
             stroke="#69738c"
             stroke-dasharray="7, 4"
             d="m 479,2135 v 29"
             id="path7696" /><path
             stroke="#69738c"
             fill="#faf1ec"
             d="m 485,2150 h -12 l 6,-15 6,15"
             id="path7698" /><path
             stroke="#69738c"
             stroke-dasharray="7, 4"
             d="m 1031,2931 v -29"
             id="path7700" /><path
             stroke="#69738c"
             fill="#faf1ec"
             d="m 1025,2916 h 12 l -6,15 -6,-15"
             id="path7702" /><path
             stroke="#69738c"
             d="m 357,706 v -14 m 0,0 v 0 m 0,0 v -50 m 0,0 6,15 m -6,-15 -6,15"
             id="path7704" /><path
             stroke="#658a99"
             d="m 802.16525,952.21598 -3,-1 m -4,-1 -3,-1 m -4,-2 -3,-1 m -4,-1 -3,-1 m -4,-2 -3,-1 m -4,-1 -3,-2 m -4,-1 -3,-1"
             id="path7706" /><path
             stroke="#658a99"
             d="m 801.17374,942.09281 h -3 m -4,-1 -3,-1 m -4,-1 -3,-1 m -4,-1 h -3 m -4,-1 -3,-1 m -4,-1 -3,-1 m -4,-1 h -3"
             id="path7708" /><path
             stroke="#658a99"
             d="m 1896.4709,730.77454 -1.1041,3.58045 m -1.104,4.77393 -1.104,3.58045 m -2.2081,4.77393 -1.104,3.58045 m -1.104,4.77394 -1.104,3.58046 m -2.2081,4.77393 -1.104,3.58045 m -1.104,4.77393 -1.1041,3.58045 m -2.208,4.77394 -1.104,3.58044 m -1.1041,4.77394 -1.104,3.58045 m -2.208,4.77393 -1.1041,3.58045 m -1.104,4.77393 -1.104,3.58045 m -2.2081,4.77394 -1.104,3.58046 m -1.104,4.77393 -1.104,3.58045 m -2.2081,4.77393 -1.104,3.58045 m -1.104,4.77393 -1.1041,3.58045"
             id="path7710"
             style="stroke-width:1.14788" /><path
             stroke="#658a99"
             stroke-dasharray="3, 4"
             d="m 803.48726,921.87718 h -45"
             id="path7712" /><path
             stroke="#69738c"
             d="M 343,203 V 170"
             id="path7714" /><path
             stroke="#69738c"
             fill="#faf1ec"
             d="m 349,186 h -12 l 6,-16 6,16"
             id="path7716" /><path
             stroke="#658a99"
             stroke-dasharray="3, 4"
             d="m 1241,1905 h 80"
             id="path7718" /><path
             stroke="#69738c"
             stroke-dasharray="7, 4"
             d="M 1502,903 H 1335"
             id="path7720" /><path
             stroke="#69738c"
             stroke-dasharray="7, 4"
             d="M 1503,776 V 893"
             id="path7722" /><path
             stroke="#69738c"
             d="m 1503,897 -1,6"
             id="path7724" /><path
             stroke="#69738c"
             stroke-dasharray="7, 4"
             d="M 1503,625 V 775"
             id="path7726" /><path
             stroke="#69738c"
             fill="#faf1ec"
             d="m 1509,640 h -12 l 6,-15 6,15"
             id="path7728" /><path
             stroke="#69738c"
             d="m 1066,670 v 36"
             id="path7730" /><path
             stroke="#69738c"
             fill="#69738c"
             d="m 1061,696 5,10 5,-10 -5,-10 -5,10"
             id="path7732" /><path
             stroke="#658a99"
             d="m 1525,1027 h -3 m -4,-1 -3,-1 m -4,-1 -3,-1 m -4,-1 -3,-1 m -4,-1 -3,-1 m -4,-1 -2,-1"
             id="path7734" /><path
             stroke="#658a99"
             stroke-dasharray="3, 4"
             d="m 1525,1011 h -37"
             id="path7736" /><path
             stroke="#658a99"
             d="m 1525,1000 h -3 m -4,1 h -3 m -4,1 h -3 m -4,1 h -3 m -4,1 -3,1 m -4,0 -2,1"
             id="path7738" /><path
             stroke="#69738c"
             d="m 524,1975 h 52"
             id="path7740" /><path
             stroke="#69738c"
             fill="#69738c"
             d="m 566,1980 10,-5 -10,-5 -10,5 10,5"
             id="path7742" /><path
             stroke="#69738c"
             d="m 360,1975 h -39 m 0,0 15,-6 m -15,6 15,6"
             id="path7744" /><path
             stroke="#69738c"
             stroke-dasharray="7, 4"
             d="M 1102,949 V 931"
             id="path7746" /><path
             stroke="#69738c"
             stroke-dasharray="7, 4"
             d="M 1531,949 H 1106"
             id="path7748" /><path
             stroke="#69738c"
             stroke-dasharray="7, 4"
             d="M 1531,647 V 949"
             id="path7750" /><path
             stroke="#69738c"
             stroke-dasharray="7, 4"
             d="m 1531,625 v 18"
             id="path7752" /><path
             stroke="#69738c"
             fill="#faf1ec"
             d="m 1537,640 h -12 l 6,-15 6,15"
             id="path7754" /><path
             stroke="#69738c"
             d="m 1322,1855 h -81"
             id="path7756" /><path
             stroke="#69738c"
             fill="#69738c"
             d="m 1251,1850 -10,5 10,5 10,-5 -10,-5"
             id="path7758" /><path
             stroke="#69738c"
             stroke-dasharray="7, 4"
             d="m 1951,609 v 61"
             id="path7760" /><path
             stroke="#69738c"
             stroke-dasharray="7, 4"
             d="m 1589,609 h 359"
             id="path7762" /><path
             stroke="#69738c"
             fill="#faf1ec"
             d="m 1604,603 v 12 l -15,-6 15,-6"
             id="path7764" /><path
             stroke="#658a99"
             d="m 802.82626,932.30809 h -3 m -4,0 -3,-1 m -4,0 -3,-1 m -4,0 -3,-1 m -4,0 -3,-1 m -4,0 h -3 m -4,-1 h -3"
             id="path7766" /><g
             transform="matrix(1,0,0,-1,527,1980)"
             id="g7770"><rect
               fill="#ffffff"
               stroke="none"
               x="0"
               width="11"
               y="-9"
               height="9"
               id="rect7768" /></g><text
             transform="translate(527,1980)"
             fill="#595959"
             stroke="none"
             id="text7774"><tspan
               dx="0"
               x="0"
               y="7"
               id="tspan7772">0..*</tspan></text><g
             transform="matrix(1,0,0,-1,2058,638)"
             id="g7778"><rect
               fill="#ffffff"
               stroke="none"
               x="0"
               width="3"
               y="-9"
               height="9"
               id="rect7776" /></g><text
             transform="translate(2058,638)"
             fill="#595959"
             stroke="none"
             id="text7782"><tspan
               dx="0"
               x="0"
               y="7"
               id="tspan7780">1</tspan></text><g
             transform="matrix(1,0,0,-1,883,1857)"
             id="g7786"><rect
               fill="#ffffff"
               stroke="none"
               x="0"
               width="3"
               y="-9"
               height="9"
               id="rect7784" /></g><text
             transform="translate(883,1857)"
             fill="#595959"
             stroke="none"
             id="text7790"><tspan
               dx="0"
               x="0"
               y="7"
               id="tspan7788">1</tspan></text><g
             transform="matrix(1,0,0,-1,1055,2180)"
             id="g7794"><rect
               fill="#ffffff"
               stroke="none"
               x="0"
               width="3"
               y="-9"
               height="9"
               id="rect7792" /></g><text
             transform="translate(1055,2180)"
             fill="#595959"
             stroke="none"
             id="text7798"><tspan
               dx="0"
               x="0"
               y="7"
               id="tspan7796">1</tspan></text><g
             transform="matrix(1,0,0,-1,1045,2720)"
             id="g7802"><rect
               fill="#ffffff"
               stroke="none"
               x="0"
               width="3"
               y="-9"
               height="9"
               id="rect7800" /></g><text
             transform="translate(1045,2720)"
             fill="#595959"
             stroke="none"
             id="text7806"><tspan
               dx="0"
               x="0"
               y="7"
               id="tspan7804">*</tspan></text><g
             transform="matrix(1,0,0,-1,551,2395)"
             id="g7810"><rect
               fill="#ffffff"
               stroke="none"
               x="0"
               width="11"
               y="-9"
               height="9"
               id="rect7808" /></g><text
             transform="translate(551,2395)"
             fill="#595959"
             stroke="none"
             id="text7814"><tspan
               dx="0"
               x="0"
               y="7"
               id="tspan7812">0..*</tspan></text><g
             transform="matrix(1,0,0,-1,1075,675)"
             id="g7818"><rect
               fill="#ffffff"
               stroke="none"
               x="0"
               width="3"
               y="-9"
               height="9"
               id="rect7816" /></g><text
             transform="translate(1075,675)"
             fill="#595959"
             stroke="none"
             id="text7822"><tspan
               dx="0"
               x="0"
               y="7"
               id="tspan7820">1</tspan></text><g
             transform="matrix(1,0,0,-1,1308,1860)"
             id="g7826"><rect
               fill="#ffffff"
               stroke="none"
               x="0"
               width="11"
               y="-9"
               height="9"
               id="rect7824" /></g><text
             transform="translate(1308,1860)"
             fill="#595959"
             stroke="none"
             id="text7830"><tspan
               dx="0"
               x="0"
               y="7"
               id="tspan7828">0..*</tspan></text><g
             transform="matrix(1,0,0,-1,528,1845)"
             id="g7834"><rect
               fill="#ffffff"
               stroke="none"
               x="0"
               width="3"
               y="-9"
               height="9"
               id="rect7832" /></g><text
             transform="translate(528,1845)"
             fill="#595959"
             stroke="none"
             id="text7838"><tspan
               dx="0"
               x="0"
               y="7"
               id="tspan7836">1</tspan></text></g></g></g></g></svg>
